<mxfile host="app.diagrams.net" modified="2022-11-30T17:54:16.772Z" agent="5.0 (Windows NT 10.0; Win64; x64) AppleWebKit/537.36 (KHTML, like Gecko) Chrome/103.0.0.0 Safari/537.36" etag="DEAoVJrjF6UeMcztmclq" version="20.5.3" type="github">
  <diagram id="HrhVgEGG2dGDSIceCRAo" name="第 1 页">
    <mxGraphModel dx="1221" dy="642" grid="0" gridSize="10" guides="1" tooltips="1" connect="1" arrows="1" fold="1" page="1" pageScale="1" pageWidth="827" pageHeight="1169" math="0" shadow="0">
      <root>
        <mxCell id="0" />
        <mxCell id="1" parent="0" />
        <mxCell id="aGAowlKw3BV24nOgOgXg-7" value="粉丝收件箱2" style="rounded=1;whiteSpace=wrap;html=1;fillColor=#dae8fc;strokeColor=#6c8ebf;" vertex="1" parent="1">
          <mxGeometry x="391" y="438" width="120" height="60" as="geometry" />
        </mxCell>
        <mxCell id="aGAowlKw3BV24nOgOgXg-4" style="edgeStyle=orthogonalEdgeStyle;rounded=0;orthogonalLoop=1;jettySize=auto;html=1;entryX=0.5;entryY=0;entryDx=0;entryDy=0;" edge="1" parent="1" source="aGAowlKw3BV24nOgOgXg-1" target="aGAowlKw3BV24nOgOgXg-3">
          <mxGeometry relative="1" as="geometry">
            <Array as="points">
              <mxPoint x="301" y="358" />
              <mxPoint x="211" y="358" />
            </Array>
          </mxGeometry>
        </mxCell>
        <mxCell id="aGAowlKw3BV24nOgOgXg-13" value="2.写入feed流写信箱" style="edgeLabel;html=1;align=center;verticalAlign=middle;resizable=0;points=[];" vertex="1" connectable="0" parent="aGAowlKw3BV24nOgOgXg-4">
          <mxGeometry x="0.52" y="-3" relative="1" as="geometry">
            <mxPoint as="offset" />
          </mxGeometry>
        </mxCell>
        <mxCell id="aGAowlKw3BV24nOgOgXg-8" style="edgeStyle=orthogonalEdgeStyle;rounded=0;orthogonalLoop=1;jettySize=auto;html=1;entryX=0.5;entryY=0;entryDx=0;entryDy=0;" edge="1" parent="1" source="aGAowlKw3BV24nOgOgXg-1" target="aGAowlKw3BV24nOgOgXg-6">
          <mxGeometry relative="1" as="geometry">
            <Array as="points">
              <mxPoint x="301" y="358" />
              <mxPoint x="391" y="358" />
            </Array>
          </mxGeometry>
        </mxCell>
        <mxCell id="aGAowlKw3BV24nOgOgXg-15" value="3. 非大v则写扩散ID给粉丝" style="edgeLabel;html=1;align=center;verticalAlign=middle;resizable=0;points=[];" vertex="1" connectable="0" parent="aGAowlKw3BV24nOgOgXg-8">
          <mxGeometry x="0.5287" y="1" relative="1" as="geometry">
            <mxPoint as="offset" />
          </mxGeometry>
        </mxCell>
        <mxCell id="aGAowlKw3BV24nOgOgXg-1" value="发送Feed" style="rounded=0;whiteSpace=wrap;html=1;fillColor=#f8cecc;strokeColor=#b85450;" vertex="1" parent="1">
          <mxGeometry x="241" y="238" width="120" height="60" as="geometry" />
        </mxCell>
        <mxCell id="aGAowlKw3BV24nOgOgXg-10" style="edgeStyle=orthogonalEdgeStyle;rounded=0;orthogonalLoop=1;jettySize=auto;html=1;entryX=0.5;entryY=0;entryDx=0;entryDy=0;" edge="1" parent="1" source="aGAowlKw3BV24nOgOgXg-3" target="aGAowlKw3BV24nOgOgXg-9">
          <mxGeometry relative="1" as="geometry" />
        </mxCell>
        <mxCell id="aGAowlKw3BV24nOgOgXg-18" value="2. 读扩散拉取大v的个人feed流" style="edgeLabel;html=1;align=center;verticalAlign=middle;resizable=0;points=[];" vertex="1" connectable="0" parent="aGAowlKw3BV24nOgOgXg-10">
          <mxGeometry x="-0.7348" y="-3" relative="1" as="geometry">
            <mxPoint as="offset" />
          </mxGeometry>
        </mxCell>
        <mxCell id="aGAowlKw3BV24nOgOgXg-3" value="个人发件箱" style="rounded=1;whiteSpace=wrap;html=1;fillColor=#dae8fc;strokeColor=#6c8ebf;" vertex="1" parent="1">
          <mxGeometry x="151" y="438" width="120" height="60" as="geometry" />
        </mxCell>
        <mxCell id="aGAowlKw3BV24nOgOgXg-11" style="edgeStyle=orthogonalEdgeStyle;rounded=0;orthogonalLoop=1;jettySize=auto;html=1;entryX=0.5;entryY=0;entryDx=0;entryDy=0;" edge="1" parent="1" source="aGAowlKw3BV24nOgOgXg-6" target="aGAowlKw3BV24nOgOgXg-9">
          <mxGeometry relative="1" as="geometry" />
        </mxCell>
        <mxCell id="aGAowlKw3BV24nOgOgXg-19" value="3. 读取自己的收件箱" style="edgeLabel;html=1;align=center;verticalAlign=middle;resizable=0;points=[];" vertex="1" connectable="0" parent="aGAowlKw3BV24nOgOgXg-11">
          <mxGeometry x="-0.757" relative="1" as="geometry">
            <mxPoint as="offset" />
          </mxGeometry>
        </mxCell>
        <mxCell id="aGAowlKw3BV24nOgOgXg-6" value="粉丝收件箱1" style="rounded=1;whiteSpace=wrap;html=1;fillColor=#dae8fc;strokeColor=#6c8ebf;" vertex="1" parent="1">
          <mxGeometry x="331" y="438" width="120" height="60" as="geometry" />
        </mxCell>
        <mxCell id="aGAowlKw3BV24nOgOgXg-25" style="edgeStyle=orthogonalEdgeStyle;rounded=0;orthogonalLoop=1;jettySize=auto;html=1;entryX=0.5;entryY=0;entryDx=0;entryDy=0;" edge="1" parent="1" source="aGAowlKw3BV24nOgOgXg-9" target="aGAowlKw3BV24nOgOgXg-24">
          <mxGeometry relative="1" as="geometry" />
        </mxCell>
        <mxCell id="aGAowlKw3BV24nOgOgXg-9" value="懒删除等操作，整合Feed消息" style="whiteSpace=wrap;html=1;fillColor=#f5f5f5;strokeColor=#666666;fontColor=#333333;" vertex="1" parent="1">
          <mxGeometry x="241" y="678" width="120" height="60" as="geometry" />
        </mxCell>
        <mxCell id="aGAowlKw3BV24nOgOgXg-16" style="edgeStyle=orthogonalEdgeStyle;rounded=0;orthogonalLoop=1;jettySize=auto;html=1;entryX=1;entryY=0.5;entryDx=0;entryDy=0;" edge="1" parent="1" source="aGAowlKw3BV24nOgOgXg-12" target="aGAowlKw3BV24nOgOgXg-1">
          <mxGeometry relative="1" as="geometry">
            <Array as="points">
              <mxPoint x="691" y="268" />
            </Array>
          </mxGeometry>
        </mxCell>
        <mxCell id="aGAowlKw3BV24nOgOgXg-17" value="1. 获取粉丝列表" style="edgeLabel;html=1;align=center;verticalAlign=middle;resizable=0;points=[];" vertex="1" connectable="0" parent="aGAowlKw3BV24nOgOgXg-16">
          <mxGeometry x="-0.2252" y="-1" relative="1" as="geometry">
            <mxPoint as="offset" />
          </mxGeometry>
        </mxCell>
        <mxCell id="aGAowlKw3BV24nOgOgXg-20" style="edgeStyle=orthogonalEdgeStyle;rounded=0;orthogonalLoop=1;jettySize=auto;html=1;entryX=0.5;entryY=0;entryDx=0;entryDy=0;" edge="1" parent="1" source="aGAowlKw3BV24nOgOgXg-12" target="aGAowlKw3BV24nOgOgXg-9">
          <mxGeometry relative="1" as="geometry">
            <Array as="points">
              <mxPoint x="691" y="589" />
              <mxPoint x="301" y="589" />
            </Array>
          </mxGeometry>
        </mxCell>
        <mxCell id="aGAowlKw3BV24nOgOgXg-23" value="1. 获取大v列表" style="edgeLabel;html=1;align=center;verticalAlign=middle;resizable=0;points=[];" vertex="1" connectable="0" parent="aGAowlKw3BV24nOgOgXg-20">
          <mxGeometry x="-0.8766" relative="1" as="geometry">
            <mxPoint as="offset" />
          </mxGeometry>
        </mxCell>
        <mxCell id="aGAowlKw3BV24nOgOgXg-12" value="关注关系列表" style="whiteSpace=wrap;html=1;fillColor=#d5e8d4;strokeColor=#82b366;" vertex="1" parent="1">
          <mxGeometry x="632" y="441" width="120" height="60" as="geometry" />
        </mxCell>
        <mxCell id="aGAowlKw3BV24nOgOgXg-24" value="读取Feeds流" style="whiteSpace=wrap;html=1;fillColor=#f8cecc;strokeColor=#b85450;" vertex="1" parent="1">
          <mxGeometry x="241" y="818" width="120" height="60" as="geometry" />
        </mxCell>
        <mxCell id="aGAowlKw3BV24nOgOgXg-26" value="" style="swimlane;startSize=0;" vertex="1" parent="1">
          <mxGeometry x="59" y="334" width="750" height="283" as="geometry" />
        </mxCell>
      </root>
    </mxGraphModel>
  </diagram>
</mxfile>
